<?xml version="1.0" encoding="iso-8859-1"?>
<!-- Generator: Adobe Illustrator 18.0.0, SVG Export Plug-In . SVG Version: 6.00 Build 0)  -->
<!DOCTYPE svg PUBLIC "-//W3C//DTD SVG 1.1//EN" "http://www.w3.org/Graphics/SVG/1.1/DTD/svg11.dtd">
<svg version="1.1" id="Capa_1" xmlns="http://www.w3.org/2000/svg" xmlns:xlink="http://www.w3.org/1999/xlink" x="0px" y="0px"
	 viewBox="0 0 474.588 474.588" style="enable-background:new 0 0 474.588 474.588;" xml:space="preserve">
<g>
	<path d="M113.294,158.122c-5.86,17.713-10.194,36.023-12.88,54.42c-0.444,3.04,1.011,6.042,3.671,7.579l83.1,47.98
		c1.156,0.667,2.452,1.005,3.75,1.005c1.056,0,2.114-0.223,3.103-0.672c2.204-1.001,3.789-3.006,4.256-5.382
		c2.798-14.244,6.554-28.541,11.162-42.494c9.231-27.908,21.933-54.567,37.752-79.233c1.106-1.726,1.458-3.829,0.974-5.821
		s-1.763-3.699-3.538-4.724l-85.61-49.42c-3.452-1.993-7.863-0.936-10.037,2.407C133.986,106.852,121.973,131.869,113.294,158.122z
		 M116.031,209.697c2.586-15.845,6.45-31.588,11.504-46.866c7.528-22.772,17.685-44.566,30.232-64.883l72.646,41.936
		c-14.571,23.838-26.397,49.357-35.199,75.966c-3.704,11.214-6.879,22.641-9.477,34.094L116.031,209.697z"/>
	<path d="M132.283,164.4c-4.036,12.199-7.324,24.793-9.771,37.432c-0.608,3.141,0.843,6.321,3.613,7.92l47.763,27.577
		c1.155,0.667,2.45,1.005,3.75,1.005c0.965,0,1.934-0.187,2.85-0.563c2.15-0.883,3.769-2.714,4.383-4.956
		c1.699-6.203,3.581-12.437,5.594-18.53c7.583-22.924,17.445-45.192,29.315-66.183c2.026-3.583,0.786-8.129-2.779-10.187
		l-51.007-29.445c-1.736-1.002-3.801-1.267-5.734-0.737c-1.933,0.53-3.573,1.813-4.555,3.56
		C146.244,128.141,138.364,146.008,132.283,164.4z M138.301,199.462c2.185-10.253,4.944-20.439,8.224-30.352
		c4.984-15.074,11.238-29.775,18.631-43.803l37.971,21.919c-10.755,19.913-19.793,40.855-26.903,62.352
		c-1.087,3.291-2.137,6.621-3.143,9.964L138.301,199.462z"/>
	<path d="M119.219,250.066v25.532c0,2.68,1.43,5.155,3.75,6.495l66.334,38.298c1.16,0.67,2.455,1.005,3.75,1.005
		c1.294,0,2.588-0.334,3.748-1.003c2.32-1.338,3.75-3.813,3.752-6.491l0.018-25.522c0.002-2.682-1.428-5.16-3.75-6.5l-66.352-38.308
		c-2.32-1.34-5.18-1.34-7.5,0S119.219,247.386,119.219,250.066z M134.219,263.056l51.349,29.646l-0.006,8.208l-51.343-29.643
		V263.056z"/>
	<path d="M251.464,160.235l15.581,8.996c3.587,2.071,4.816,6.658,2.745,10.245c-1.389,2.406-3.91,3.751-6.502,3.751
		c-1.272,0-2.562-0.324-3.743-1.006l-15.581-8.996c-3.587-2.071-4.816-6.658-2.745-10.245
		C243.29,159.392,247.877,158.163,251.464,160.235z"/>
	<g>
		<path d="M395.822,90.369L241.044,1.005c-2.321-1.34-5.181-1.34-7.501,0l-88.445,51.087l0.003,0.006
			c-0.885,0.511-1.682,1.203-2.317,2.078c-21.879,29.474-38.84,62.138-50.379,97.042c-11.539,34.903-17.389,71.24-17.389,108.001
			v118.519c0,2.68,1.43,5.155,3.75,6.495l154.758,89.35c1.16,0.67,2.455,1.005,3.75,1.005s2.589-0.335,3.75-1.004
			c0.001,0,0.001-0.001,0.002-0.001l154.796-89.372c2.32-1.34,3.75-3.815,3.75-6.495V96.863
			C399.572,94.184,398.142,91.709,395.822,90.369z M237.295,16.161l139.779,80.705l-73.448,42.422L163.847,58.586L237.295,16.161z
			 M229.784,348.564l-0.009,105.534l-139.759-80.69V259.219c0-35.159,5.596-69.912,16.631-103.293
			c10.338-31.273,25.229-60.668,44.299-87.468l141.731,81.829c-19.542,27.703-34.831,58.033-45.493,90.273
			C235.642,275.464,229.788,311.801,229.784,348.564z M384.572,373.385l-139.797,80.712l0.009-105.532
			c0.003-35.16,5.602-69.913,16.641-103.295c10.88-32.901,26.807-63.715,47.33-91.623l75.816-43.79V373.385z"/>
		<path d="M297.795,261.421l0.001,0.177c0.047,7.014,3.714,13.271,9.811,16.738c3.329,1.893,7.003,2.731,10.638,2.531l0.201,31.832
			c-1.382,0.275-2.515-0.228-3.018-0.517c-0.666-0.381-2.214-1.518-2.214-3.821v-5.465c0-4.142-3.358-7.5-7.5-7.5
			s-7.5,3.358-7.5,7.5v5.465c0,7.041,3.647,13.334,9.755,16.835c3.025,1.734,6.334,2.601,9.646,2.6c0.353,0,0.705-0.016,1.058-0.035
			c0.666,3.464,3.709,6.077,7.359,6.077c0.016,0,0.032,0,0.048,0c4.142-0.026,7.479-3.405,7.453-7.547l-0.034-5.343
			c12.629-10.002,20.175-25.424,20.073-41.766l-0.001-0.179c-0.044-7.015-3.711-13.274-9.809-16.744
			c-3.333-1.896-7.011-2.735-10.649-2.533l-0.201-31.835c1.383-0.275,2.515,0.229,3.018,0.517c0.666,0.382,2.214,1.518,2.214,3.821
			c0,4.142,3.358,7.5,7.5,7.5s7.5-3.358,7.5-7.5c0-7.04-3.646-13.333-9.752-16.834c-3.346-1.918-7.041-2.768-10.698-2.567
			c-0.645-3.491-3.699-6.131-7.367-6.131c-0.016,0-0.032,0-0.048,0c-4.142,0.026-7.479,3.405-7.453,7.547l0.034,5.399
			C305.23,229.651,297.687,245.075,297.795,261.421z M336.344,275.297c0.665,0.378,2.212,1.505,2.227,3.795l0.001,0.179
			c0.044,6.899-1.826,13.563-5.214,19.345l-0.15-23.793C334.641,274.491,335.827,275.002,336.344,275.297z M318,241.98l0.15,23.793
			c-1.429,0.327-2.61-0.182-3.126-0.476c-0.665-0.378-2.212-1.505-2.227-3.792l-0.001-0.177
			C312.75,254.427,314.616,247.762,318,241.98z"/>
	</g>
</g>
<g>
</g>
<g>
</g>
<g>
</g>
<g>
</g>
<g>
</g>
<g>
</g>
<g>
</g>
<g>
</g>
<g>
</g>
<g>
</g>
<g>
</g>
<g>
</g>
<g>
</g>
<g>
</g>
<g>
</g>
</svg>
