<?xml version="1.0" encoding="iso-8859-1"?>
<!-- Generator: Adobe Illustrator 19.0.0, SVG Export Plug-In . SVG Version: 6.00 Build 0)  -->
<svg version="1.1" id="icon_bank" class="intro-icon" xmlns="http://www.w3.org/2000/svg" xmlns:xlink="http://www.w3.org/1999/xlink" x="0px" y="0px"
	 viewBox="0 0 408 408" style="enable-background:new 0 0 408 408;" xml:space="preserve">
<g class="lines">
		<path fill="#4177B5" d="M383.2,91.15L206,26.35c-1.6-0.4-2.8-0.4-4.4,0L25.2,91.15c-2.8,1.2-4.8,4-4,7.2c0.4,2.8,2.8,5.2,6,5.2h353.6
			c3.2,0,5.6-2.4,6.4-5.2C387.6,95.15,386,92.35,383.2,91.15z M63.6,90.35L204,39.15l140.4,51.2H63.6z"/>

		<path fill="#f2f2f2"  d="M401.6,342.75h-18v-20c0-3.6-2.8-6.4-6.4-6.4h-10.4v-19.6c0-3.6-2.8-6.4-6.4-6.4h-4v-155.2h16c3.6,0,6.4-2.8,6.4-6.4
			c0-3.6-2.8-6.4-6.4-6.4H350h-32h-98h-32H90H58H35.6c-3.6,0-6.4,2.8-6.4,6.4c0,3.6,2.8,6.4,6.4,6.4h16v155.2h-4
			c-3.6,0-6.4,2.8-6.4,6.4v19.6H30.8c-3.6,0-6.4,2.8-6.4,6.4v20h-18c-3.6,0-6.4,2.8-6.4,6.4v26.4c0,3.6,2.8,6.4,6.4,6.4h395.2
			c3.6,0,6.4-2.8,6.4-6.4v-26.4C408,345.55,405.2,342.75,401.6,342.75z M324.4,135.15h18.8v155.2h-18.8V135.15z M314,303.15h4h32h4
			v13.2h-40V303.15z M226.4,135.15h85.2v155.2h-4c-3.6,0-6.4,2.8-6.4,6.4v19.6h-64.4v-19.6c0-3.6-2.8-6.4-6.4-6.4h-4V135.15z
			 M194.8,135.15h18.8v155.2h-18.8V135.15z M184,303.15h4h32h4v13.2h-40V303.15z M96.4,135.15h85.2v155.2h-4c-3.6,0-6.4,2.8-6.4,6.4
			v19.6h-64.4v-19.6c0-3.6-2.8-6.4-6.4-6.4h-4V135.15z M64.8,135.15h18.8v155.2H64.8V135.15z M54,303.15h4h32h4v13.2H54V303.15z
			 M37.2,329.15h10.4h52.8h77.2h52.8h77.2h52.8h10.4v13.6H37.2V329.15z M395.2,369.15H12.8v-13.6h18h346.4h18V369.15z"/>
	</g>
</svg>
