<?xml version="1.0" encoding="iso-8859-1"?>
<!-- Generator: Adobe Illustrator 18.0.0, SVG Export Plug-In . SVG Version: 6.00 Build 0)  -->
<!DOCTYPE svg PUBLIC "-//W3C//DTD SVG 1.1//EN" "http://www.w3.org/Graphics/SVG/1.1/DTD/svg11.dtd">
<svg version="1.1" id="Capa_1" xmlns="http://www.w3.org/2000/svg" xmlns:xlink="http://www.w3.org/1999/xlink" x="0px" y="0px"
	 viewBox="0 0 472.397 472.397" style="enable-background:new 0 0 472.397 472.397;" xml:space="preserve">
<g>
	<path d="M182.238,225.94h265.659c12.381,0,22.453-10.073,22.453-22.454V37.336c0-12.381-10.072-22.453-22.453-22.453H182.238
		c-12.381,0-22.454,10.073-22.454,22.455v166.148C159.784,215.866,169.856,225.94,182.238,225.94z M180.784,37.338
		c0-0.803,0.652-1.455,1.454-1.455h265.659c0.801,0,1.453,0.652,1.453,1.453v166.149c0,0.802-0.652,1.454-1.453,1.454H182.238
		c-0.802,0-1.454-0.652-1.454-1.454V37.338z" fill="#f2f2f2"/>
	<path fill="#f2f2f2" d="M369.448,195.86c5.826,0,11.402-1.482,16.317-4.273c4.915,2.791,10.491,4.273,16.318,4.273
		c18.286,0,33.163-14.877,33.163-33.163c0-18.287-14.877-33.164-33.163-33.164c-5.826,0-11.402,1.483-16.318,4.273
		c-4.916-2.791-10.492-4.273-16.317-4.273c-18.286,0-33.163,14.877-33.163,33.164C336.285,180.983,351.162,195.86,369.448,195.86z
		 M369.448,150.533c3.329,0,6.439,1.325,8.758,3.73c1.979,2.054,4.709,3.214,7.561,3.214c2.853,0,5.582-1.161,7.562-3.216
		c2.315-2.404,5.425-3.729,8.755-3.729c6.707,0,12.163,5.457,12.163,12.164s-5.456,12.163-12.163,12.163
		c-3.33,0-6.439-1.324-8.754-3.728c-1.978-2.056-4.709-3.218-7.563-3.218h-0.001c-2.853,0-5.583,1.161-7.563,3.216
		c-2.316,2.405-5.426,3.73-8.756,3.73c-6.707,0-12.163-5.456-12.163-12.163S362.741,150.533,369.448,150.533z"/>
	<path fill="#f2f2f2" d="M212.197,93.015h104.701c5.799,0,10.5-4.701,10.5-10.5c0-5.799-4.701-10.5-10.5-10.5H212.197
		c-5.799,0-10.5,4.701-10.5,10.5C201.697,88.314,206.398,93.015,212.197,93.015z"/>
	<path fill="#f2f2f2" d="M352.252,93.015h32.635c5.799,0,10.5-4.701,10.5-10.5c0-5.799-4.701-10.5-10.5-10.5h-32.635c-5.799,0-10.5,4.701-10.5,10.5
		C341.752,88.314,346.453,93.015,352.252,93.015z"/>
	<path fill="#f2f2f2" d="M461.271,337.365c-6.339-5.654-14.294-8.258-22.403-7.329c-13.612,1.557-31.436,5.233-50.307,9.125
		c-25.481,5.256-51.83,10.69-72.004,11.951c-17.425,1.085-49.16-3.454-58.563-8.379c-6.342-3.322-9.889-7.396-11.877-10.998h39.11
		c16.135,0,29.261-13.126,29.261-29.26v-22.978c0-16.134-13.126-29.259-29.261-29.259H178.02c-4.558-0.141-59.254-1.169-97.13,31.14
		c-6.704,5.718-12.036,11.121-16.289,16.031c-4.498-5.621-11.41-9.232-19.153-9.232H10.5c-5.799,0-10.5,4.701-10.5,10.5v148.335
		c0,2.785,1.107,5.456,3.076,7.425c1.969,1.969,4.64,3.075,7.425,3.075l34.947-0.001c13.525,0,24.528-11.003,24.528-24.527v-8.071
		c10.452,0.656,34.138,3.243,84.26,12.654c59.195,11.115,96.131,14.882,125.232,14.881c20.856,0,37.691-1.935,55.801-4.485
		c22.387-3.151,50.544-11.116,75.386-18.143c11.5-3.253,22.362-6.325,31.974-8.749c25.901-6.533,29.768-22.865,29.768-32.02v-26.749
		C472.397,352.903,468.237,343.58,461.271,337.365z M48.976,432.985c0,1.945-1.582,3.527-3.528,3.527L21,436.514V309.179h24.448
		c1.945,0,3.528,1.582,3.528,3.527V432.985z M451.397,389.053c0,2.23,0,8.15-13.903,11.656c-9.903,2.498-20.906,5.61-32.555,8.905
		c-24.198,6.845-51.625,14.602-72.598,17.555c-41.317,5.818-75.766,8.248-174.23-10.239c-50.639-9.508-75.771-12.381-88.135-13.04
		v-77.962c0.375-0.469,0.722-0.968,1.02-1.512c2.692-4.909,9.327-14.953,23.522-27.06c32.37-27.612,82.423-26.148,82.912-26.125
		c0.136,0.005,0.272,0.008,0.409,0.008h107.39c4.555,0,8.261,3.705,8.261,8.259v22.978c0,4.555-3.706,8.26-8.261,8.26h-107.39
		c-5.799,0-10.5,4.701-10.5,10.5s4.701,10.5,10.5,10.5h45.977c2.16,8.61,8.117,21.052,24.435,29.6
		c14.925,7.818,51.943,11.852,69.616,10.736c21.654-1.353,48.742-6.939,74.938-12.343c18.396-3.795,35.772-7.379,48.451-8.829
		c2.675-0.3,4.756,0.993,6.037,2.137c2.532,2.259,4.105,5.811,4.105,9.268V389.053z"/>
</g>
<g>
</g>
<g>
</g>
<g>
</g>
<g>
</g>
<g>
</g>
<g>
</g>
<g>
</g>
<g>
</g>
<g>
</g>
<g>
</g>
<g>
</g>
<g>
</g>
<g>
</g>
<g>
</g>
<g>
</g>
</svg>
