<?xml version="1.0" encoding="iso-8859-1"?>
<!-- Generator: Adobe Illustrator 19.0.0, SVG Export Plug-In . SVG Version: 6.00 Build 0)  -->
<svg version="1.1" id="Capa_1" xmlns="http://www.w3.org/2000/svg" xmlns:xlink="http://www.w3.org/1999/xlink" x="0px" y="0px"
	 viewBox="0 0 480 480" style="enable-background:new 0 0 480 480;" xml:space="preserve">
<g>
	<g>
		<path d="M416,0H208c-13.255,0-24,10.745-24,24v92.056l-81.456,62.528c-8.728,5.477-14.992,14.126-17.472,24.128L42.152,374.4
			c-1.432,5.716-2.155,11.587-2.152,17.48V480h16v-88.12c-0.003-4.585,0.559-9.152,1.672-13.6L100.6,206.576
			c1.519-6.074,5.363-11.308,10.704-14.576c0.232-0.144,0.456-0.304,0.68-0.464l72-55.28v100.432l-29.656,29.656l11.312,11.312
			l103.728-103.712c7.924-7.922,20.77-7.92,28.692,0.004c3.803,3.804,5.94,8.962,5.94,14.34v1.248
			c0.01,4.771-1.671,9.391-4.744,13.04l-65.192,72.056c-1.613,1.787-2.336,4.205-1.968,6.584l0.608,4
			c8,52.08-21.52,97.304-75.2,115.2l5.056,15.2c23.397-7.425,44.309-21.128,60.456-39.616h57.6l-30.12,43.024
			c-10.17,14.581-24.537,25.72-41.192,31.936l-36.128,13.544c-3.118,1.177-5.181,4.163-5.176,7.496v8h16v-2.456l30.936-11.6
			c19.682-7.352,36.662-20.516,48.688-37.744l36.544-52.2H416c13.255,0,24-10.745,24-24V24C440,10.745,429.255,0,416,0z M424,352
			c0,4.418-3.582,8-8,8H234.4c13.57-23.309,18.554-50.633,14.088-77.232v-0.224l62.776-69.392
			c5.634-6.579,8.732-14.954,8.736-23.616v-1.248c0.007-20.037-16.231-36.286-36.268-36.292
			c-9.631-0.003-18.869,3.823-25.676,10.636L200,220.688V24c0-4.418,3.582-8,8-8h208c4.418,0,8,3.582,8,8V352z"/>
	</g>
</g>
<g>
	<g>
		<path d="M394.512,91.856C398.064,85.839,399.957,78.987,400,72c0-22.091-17.909-40-40-40c-22.091,0-40,17.909-40,40
			c0.043,6.987,1.936,13.839,5.488,19.856c-11.161,19.024-4.786,43.493,14.238,54.654c6.147,3.606,13.147,5.502,20.274,5.49
			c22.056,0.036,39.966-17.814,40.002-39.87C400.014,105.003,398.118,98.003,394.512,91.856z M367.63,134.812
			c-2.462,0.809-5.039,1.211-7.63,1.188c-13.131,0.122-23.874-10.423-23.996-23.554c-0.024-2.596,0.377-5.179,1.188-7.646
			c13.68,9.613,31.92,9.613,45.6,0C386.893,117.274,380.104,130.711,367.63,134.812z M360,96c-13.255,0-24-10.745-24-24
			s10.745-24,24-24s24,10.745,24,24S373.255,96,360,96z"/>
	</g>
</g>
<g>
	<g>
		<rect x="216" y="48" width="16" height="120"/>
	</g>
</g>
<g>
	<g>
		<rect x="248" y="56" width="16" height="80"/>
	</g>
</g>
<g>
	<g>
		<rect x="304" y="240" width="16" height="32"/>
	</g>
</g>
<g>
	<g>
		<rect x="304" y="288" width="16" height="40"/>
	</g>
</g>
<g>
	<g>
		<rect x="360" y="176" width="16" height="160"/>
	</g>
</g>
<g>
	<g>
		<rect x="392" y="176" width="16" height="160"/>
	</g>
</g>
<g>
</g>
<g>
</g>
<g>
</g>
<g>
</g>
<g>
</g>
<g>
</g>
<g>
</g>
<g>
</g>
<g>
</g>
<g>
</g>
<g>
</g>
<g>
</g>
<g>
</g>
<g>
</g>
<g>
</g>
</svg>
