<?xml version="1.0" encoding="iso-8859-1"?>
<!-- Generator: Adobe Illustrator 19.0.0, SVG Export Plug-In . SVG Version: 6.00 Build 0)  -->
<svg xmlns="http://www.w3.org/2000/svg" xmlns:xlink="http://www.w3.org/1999/xlink" version="1.1" id="Capa_1" x="0px" y="0px" viewBox="0 0 433.28 433.28" style="enable-background:new 0 0 433.28 433.28;" xml:space="preserve" width="512px" height="512px">
<g>
	<g>
		<path d="M216.64,0C96.993,0,0,96.993,0,216.64s96.993,216.64,216.64,216.64s216.64-96.993,216.64-216.64    C433.148,97.048,336.232,0.132,216.64,0z M417.12,208.64h-31.28c-3.344-15.781-16.068-27.869-32-30.4    c-2.11-19.171-5.993-38.106-11.6-56.56c13.33-5.961,26.01-13.28,37.84-21.84C402.835,131.686,415.717,169.524,417.12,208.64z     M272.56,224.64h36.96c3.062,14.238,13.795,25.588,27.84,29.44c-1.993,17.405-5.554,34.595-10.64,51.36    c-18.565-6.912-37.784-11.924-57.36-14.96C271.36,268,272.4,245.36,272.56,224.64z M269.44,142.8    c19.576-3.036,38.795-8.048,57.36-14.96c5.086,16.765,8.647,33.954,10.64,51.36c-14.076,3.827-24.844,15.181-27.92,29.44h-36.88    C272.64,188,271.36,165.36,269.44,142.8z M324.64,216.64c0-12.725,10.315-23.04,23.04-23.04c12.725,0,23.04,10.315,23.04,23.04    s-10.315,23.04-23.04,23.04C334.955,239.68,324.64,229.365,324.64,216.64z M369.76,87.2c-10.389,7.463-21.481,13.893-33.12,19.2    C326.31,76.667,308.935,49.877,286,28.32C318.525,40.405,347.377,60.687,369.76,87.2z M321.6,112.64    c-17.423,6.525-35.461,11.269-53.84,14.16c-4.64-42.64-12.88-82.96-25.68-106.32C275.28,32.64,304.08,66.16,321.6,112.64z     M101.84,340c-12.725,0.044-23.076-10.235-23.12-22.96c-0.044-12.725,10.235-23.076,22.96-23.12c0.053,0,0.107,0,0.16,0    c12.631,0.044,22.872,10.249,22.96,22.88v0.08C124.844,329.605,114.565,339.956,101.84,340z M101.76,277.84h-2.08    c-3.459-17.535-5.412-35.333-5.84-53.2h66.8c0,20.72,1.28,43.36,3.2,65.92c-9.867,1.6-19.547,3.627-29.04,6.08    C127.81,285.049,115.295,277.928,101.76,277.84z M93.76,208.64c0.54-27.433,4.792-54.667,12.64-80.96    c9.17,3.475,18.516,6.466,28,8.96c0.743,16.449,11.768,30.646,27.52,35.44c-0.56,12-0.96,24-1.04,36.64L93.76,208.64z     M150.16,134.88c0-12.725,10.315-23.04,23.04-23.04c12.725,0,23.04,10.315,23.04,23.04c0,12.725-10.315,23.04-23.04,23.04    C160.475,157.92,150.16,147.605,150.16,134.88z M177.68,173.44c14.911-1.907,27.379-12.255,32-26.56h6.56    c12.512-0.059,25.011-0.807,37.44-2.24c1.6,19.12,2.56,40.4,2.8,64h-79.84C176.64,196.72,177.04,184.64,177.68,173.44z     M256.64,224.64c0,23.28-1.2,44.56-2.8,64c-24.615-2.784-49.465-2.784-74.08,0c-1.6-19.2-2.64-40.48-2.8-64H256.64z M216.64,16    c10.4,0,27.6,38.56,35.6,113.04c-11.823,1.288-23.707,1.929-35.6,1.92h-4.88c-1.57-15.223-11.941-28.101-26.48-32.88    C194.96,38.48,209.44,16,216.64,16z M191.04,20.4c-10.48,18.96-17.28,48.4-21.6,76.24c-14.577,1.194-27.251,10.467-32.8,24    c-8.61-2.235-17.101-4.905-25.44-8C128.64,66.08,157.44,32,191.04,20.4z M148.48,27.92c-23.354,21.662-41.137,48.638-51.84,78.64    C84.884,101.222,73.683,94.738,63.2,87.2C85.954,60.323,115.359,39.883,148.48,27.92z M53.68,99.76v0.16    c11.905,8.599,24.666,15.944,38.08,21.92c-8.691,28.139-13.403,57.355-14,86.8h-61.6C17.688,169.447,30.739,131.574,53.68,99.76z     M53.68,333.6v0.16c-22.986-31.882-36.039-69.844-37.52-109.12h61.68c0.407,19.349,2.522,38.623,6.32,57.6    c-13.108,6.579-21.399,19.974-21.44,34.64c0.039,3.271,0.496,6.524,1.36,9.68C60.507,328.8,57.04,331.147,53.68,333.6z     M63.648,346.307c2.443-1.806,5.04-3.536,7.872-5.187c9.004,11.625,23.836,17.117,38.24,14.16    c9.624,18.795,22.519,35.726,38.08,50C115.147,393.234,86.14,372.914,63.648,346.307z M124.302,348.753    c10.378-7.324,16.538-19.248,16.498-31.953c-0.049-1.689-0.209-3.372-0.48-5.04c8.267-2.133,16.693-3.893,25.28-5.28    c4.64,42.72,12.96,83.12,25.76,106.4C165.55,404.09,142.134,381.81,124.302,348.753z M216.64,417.28    c-10.4,0-27.52-38.48-35.52-112.88c23.63-2.688,47.49-2.688,71.12,0C244.24,378.72,227.04,417.28,216.64,417.28z M242.08,412.72    v-0.08c12.8-23.28,21.04-64,25.68-106.32c18.384,2.943,36.423,7.74,53.84,14.32C304.08,367.12,275.28,400.64,242.08,412.72z     M286,404.96l-0.08-0.32c22.922-21.458,40.322-48.134,50.72-77.76c11.642,5.332,22.735,11.789,33.12,19.28    C347.367,372.644,318.516,392.897,286,404.96z M379.6,333.52v-0.32c-11.83-8.559-24.51-15.878-37.84-21.84    c5.619-18.374,9.529-37.227,11.68-56.32c15.932-2.531,28.656-14.619,32-30.4h31.28C415.309,263.791,402.399,301.66,379.6,333.52z" fill="#FFFFFF"/>
	</g>
</g>
<g>
</g>
<g>
</g>
<g>
</g>
<g>
</g>
<g>
</g>
<g>
</g>
<g>
</g>
<g>
</g>
<g>
</g>
<g>
</g>
<g>
</g>
<g>
</g>
<g>
</g>
<g>
</g>
<g>
</g>
</svg>
