<?xml version="1.0" encoding="iso-8859-1"?>
<!-- Generator: Adobe Illustrator 19.0.0, SVG Export Plug-In . SVG Version: 6.00 Build 0)  -->
<svg version="1.1" id="Layer_1" xmlns="http://www.w3.org/2000/svg" xmlns:xlink="http://www.w3.org/1999/xlink" x="0px" y="0px"
	 viewBox="0 0 512 512" style="enable-background:new 0 0 512 512;" xml:space="preserve">
<rect x="7.286" y="173.1" style="fill:#103B9B;" width="497.43" height="165.81"/>
<rect x="7.286" y="7.286" style="fill:#FFFFFF;" width="497.43" height="165.81"/>
<rect x="7.286" y="338.9" style="fill:#ED1F34;" width="497.43" height="165.81"/>
<path d="M504.714,0H7.286C3.262,0,0,3.262,0,7.286v497.427C0,508.738,3.262,512,7.286,512h497.427c4.025,0,7.286-3.262,7.286-7.286
	V7.286C512,3.262,508.738,0,504.714,0z M497.427,14.573v151.236H14.573V14.573H497.427z M14.573,497.427V346.191h390.655
	c4.025,0,7.286-3.262,7.286-7.286c0-4.024-3.262-7.287-7.286-7.287H14.573V180.382h482.854v151.236h-59.037
	c-4.025,0-7.286,3.262-7.286,7.287c0,4.024,3.262,7.286,7.286,7.286h59.037v151.236L14.573,497.427L14.573,497.427z"/>
<g>
</g>
<g>
</g>
<g>
</g>
<g>
</g>
<g>
</g>
<g>
</g>
<g>
</g>
<g>
</g>
<g>
</g>
<g>
</g>
<g>
</g>
<g>
</g>
<g>
</g>
<g>
</g>
<g>
</g>
</svg>
