<?xml version="1.0" encoding="iso-8859-1"?>
<!-- Generator: Adobe Illustrator 19.0.0, SVG Export Plug-In . SVG Version: 6.00 Build 0)  -->
<svg version="1.1" id="Layer_1" xmlns="http://www.w3.org/2000/svg" xmlns:xlink="http://www.w3.org/1999/xlink" x="0px" y="0px"
	 viewBox="0 0 512 512" style="enable-background:new 0 0 512 512;" xml:space="preserve">
<rect x="7.287" y="7.287" style="fill:#103B9B;" width="497.43" height="497.43"/>
<polygon style="fill:#FFFFFF;" points="504.713,7.287 424.006,7.287 256,175.293 87.994,7.287 7.287,7.287 7.287,87.994 
	175.293,256 7.287,424.006 7.287,504.713 87.994,504.713 256,336.707 424.006,504.713 504.713,504.713 504.713,424.006 336.707,256 
	504.713,87.994 "/>
<polygon style="fill:#ED1F34;" points="504.713,7.287 450.908,7.287 229.109,229.109 7.287,7.287 7.287,61.129 228.812,283.188 
	7.287,504.713 61.091,504.713 282.902,282.902 504.713,504.713 504.713,452.056 282.592,229.408 "/>
<path d="M229.109,236.396c-1.933,0-3.785-0.768-5.153-2.134L2.134,12.439c-2.845-2.845-2.845-7.459,0-10.304
	c2.846-2.846,7.459-2.846,10.306,0l216.67,216.67L445.755,2.135c2.845-2.845,7.459-2.847,10.305-0.001
	c2.846,2.845,2.846,7.459,0.001,10.305L234.262,234.261C232.896,235.628,231.042,236.396,229.109,236.396z"/>
<path d="M504.713,459.342c-1.868,0-3.735-0.714-5.159-2.14L277.433,234.554c-2.84-2.846-2.837-7.455,0.006-10.298L499.56,2.135
	c2.846-2.846,7.459-2.846,10.305,0c2.845,2.845,2.845,7.459,0,10.304L292.891,229.414L509.872,446.91
	c2.842,2.849,2.837,7.462-0.012,10.305C508.437,458.633,506.575,459.342,504.713,459.342z"/>
<path d="M504.713,512c-1.864,0-3.73-0.711-5.153-2.134L282.902,293.207L66.244,509.866c-2.846,2.846-7.459,2.846-10.305,0
	c-2.845-2.845-2.845-7.459,0-10.305l221.81-221.811c2.846-2.846,7.459-2.846,10.305,0l221.811,221.811
	c2.845,2.845,2.845,7.459,0,10.305C508.443,511.288,506.577,512,504.713,512z"/>
<path d="M7.287,512c-1.864,0-3.73-0.711-5.153-2.134c-2.845-2.845-2.845-7.459,0-10.305l216.379-216.379L2.128,66.276
	c-2.842-2.849-2.837-7.462,0.012-10.305c2.849-2.843,7.463-2.836,10.305,0.012L233.97,278.042c2.84,2.847,2.837,7.455-0.006,10.298
	L12.439,509.866C11.016,511.288,9.151,512,7.287,512z"/>
<polygon style="fill:#FFFFFF;" points="504.713,188.847 300.768,188.847 300.768,7.287 211.232,7.287 211.232,188.847 
	7.287,188.847 7.287,323.153 211.232,323.153 211.232,504.713 300.768,504.713 300.768,323.153 504.713,323.153 "/>
<polygon style="fill:#ED1F34;" points="504.713,231.958 280.042,231.958 280.042,7.287 231.958,7.287 231.958,231.958 
	7.287,231.958 7.287,280.042 231.958,280.042 231.958,504.713 280.042,504.713 280.042,280.042 504.713,280.042 "/>
<path d="M504.713,0H7.287C3.262,0,0,3.263,0,7.287v497.427C0,508.738,3.262,512,7.287,512h497.427c4.025,0,7.286-3.262,7.286-7.286
	V7.287C512,3.263,508.738,0,504.713,0z M497.427,224.671H287.329V14.573h210.098V224.671z M224.671,14.573v210.098H14.573V14.573
	H224.671z M14.573,287.329h210.098v210.098H14.573V287.329z M287.329,497.427V287.329H438.39c4.025,0,7.286-3.262,7.286-7.286
	s-3.262-7.286-7.286-7.286H280.043c-4.025,0-7.286,3.262-7.286,7.286v217.385h-33.512V280.042c0-4.024-3.262-7.286-7.286-7.286
	H14.573v-33.511h217.384c4.025,0,7.286-3.262,7.286-7.286V14.573h33.512v217.385c0,4.024,3.262,7.286,7.286,7.286h217.384v33.511
	h-25.876c-4.025,0-7.286,3.262-7.286,7.286s3.262,7.286,7.286,7.286h25.876v210.098H287.329V497.427z"/>
<g>
</g>
<g>
</g>
<g>
</g>
<g>
</g>
<g>
</g>
<g>
</g>
<g>
</g>
<g>
</g>
<g>
</g>
<g>
</g>
<g>
</g>
<g>
</g>
<g>
</g>
<g>
</g>
<g>
</g>
</svg>
